<svg height="175pt" preserveAspectRatio="xMidYMid meet" viewBox="0 0 164 175" width="164pt" xmlns="http://www.w3.org/2000/svg"><g transform="matrix(.1 0 0 -.1 0 175)"><path d="m650 1606c-297-66-529-286-607-576-24-89-24-300 0-390 30-115 102-243 186-332 136-145 281-222 479-253 37-6 42-4 42 12 0 15-12 21-66 30-149 26-298 131-364 256-18 34-45 80-60 102-223 330-123 764 222 962 62 36 179 74 246 80l64 6-7 34c-16 87-27 93-135 69z"/><path d="m932 1548c50-50 88-80 114-88 70-22 177-92 244-160 76-78 121-150 158-252 24-66 27-86 27-213 0-120-4-149-23-205-37-103-92-186-210-316-128-141-200-186-344-218-20-5-28-13-28-27 0-19 4-20 43-14 340 53 597 288 672 615 19 84 19 247 0 330-76 328-345 575-669 615l-59 8z"/><path d="m662 1420c-219-58-373-208-438-426-28-96-24-239 12-344l29-85 7 60c9 83 31 143 96 265 31 58 65 124 76 147 12 23 26 42 33 43 32 1 83-97 83-159 0-25 1-24 36 10 56 53 121 149 163 241 44 95 61 157 61 222v46l-42-1c-24 0-76-9-116-19z"/><path d="m1022 1393c2-5 15-31 30-59 84-160 93-326 26-483-10-24-16-46-14-49 7-6 57 26 74 47 7 9 24 38 38 65s29 45 34 40c11-12 55-138 76-216 9-35 19-101 23-148l6-85 32 66c117 237 72 504-116 689-77 76-227 171-209 133z"/><path d="m844 320c0-146 2-205 3-132 2 72 2 192 0 265-1 72-3 13-3-133z"/></g></svg>